<mxfile host="app.diagrams.net" modified="2024-06-03T08:07:49.295Z" agent="Mozilla/5.0 (X11; Linux x86_64; rv:126.0) Gecko/20100101 Firefox/126.0" etag="EHAFdY_boAY8-GzdaiuF" version="24.4.13" type="github">
  <diagram name="Page-1" id="fDwMKDijbgeh4QV7j6IF">
    <mxGraphModel dx="265" dy="798" grid="1" gridSize="10" guides="1" tooltips="1" connect="1" arrows="1" fold="1" page="1" pageScale="1" pageWidth="1169" pageHeight="827" math="0" shadow="0">
      <root>
        <mxCell id="0" />
        <mxCell id="1" parent="0" />
        <mxCell id="5FEoaXunzZBtXonlNajd-39" value="" style="vsdxID=5;fillColor=none;gradientColor=none;image;aspect=fixed;image=data:image/jpg,/9j/4AAQSkZJRgABAQAAAQABAAD/2wBDAAMCAgICAgMCAgIDAwMDBAYEBAQEBAgGBgUGCQgKCgkICQkKDA8MCgsOCwkJDRENDg8QEBEQCgwSExIQEw8QEBD/2wBDAQMDAwQDBAgEBAgQCwkLEBAQEBAQEBAQEBAQEBAQEBAQEBAQEBAQEBAQEBAQEBAQEBAQEBAQEBAQEBAQEBAQEBD/wAARCABFAssDAREAAhEBAxEB/8QAHwAAAQUBAQEBAQEAAAAAAAAAAAECAwQFBgcICQoL/8QAtRAAAgEDAwIEAwUFBAQAAAF9AQIDAAQRBRIhMUEGE1FhByJxFDKBkaEII0KxwRVS0fAkM2JyggkKFhcYGRolJicoKSo0NTY3ODk6Q0RFRkdISUpTVFVWV1hZWmNkZWZnaGlqc3R1dnd4eXqDhIWGh4iJipKTlJWWl5iZmqKjpKWmp6ipqrKztLW2t7i5usLDxMXGx8jJytLT1NXW19jZ2uHi4+Tl5ufo6erx8vP09fb3+Pn6/8QAHwEAAwEBAQEBAQEBAQAAAAAAAAECAwQFBgcICQoL/8QAtREAAgECBAQDBAcFBAQAAQJ3AAECAxEEBSExBhJBUQdhcRMiMoEIFEKRobHBCSMzUvAVYnLRChYkNOEl8RcYGRomJygpKjU2Nzg5OkNERUZHSElKU1RVVldYWVpjZGVmZ2hpanN0dXZ3eHl6goOEhYaHiImKkpOUlZaXmJmaoqOkpaanqKmqsrO0tba3uLm6wsPExcbHyMnK0tPU1dbX2Nna4uPk5ebn6Onq8vP09fb3+Pn6/9oADAMBAAIRAxEAPwD7DWR4kjWORgCq8A+1AAb2YDPnuQPRj1oAjW8uB/y1fk5+8atRTQAb26YYMj8H++alAIby65KzOCevzGqatsAgvrsf8t35/wBo1Lv1AcL65PWZ8+u41UY6AeefEjxZ8c9E1S1i+GfgPTvENi8O64mu9XW2eOXJ+XaxGRjBzz3qLAcgfiJ+1+Rk/BXw9/4Ukf8A8XTVwBviL+1+Dg/BTw+cAj/kZIx/7NRZsBT8RP2vw23/AIUl4f8Ar/wkkX/xdGoAPiP+1+SB/wAKU0Bs9D/wkcfH/j1AC/8ACxP2viBn4KaAM8ceJI8/+hUXAcnxE/a9J2j4KaB0zz4kj/8AiqNQE/4WN+17z/xZTw+pHXPiWPn/AMepq4Dl+If7X2Af+FK+Hjn/AKmSP/4qlqAv/Cwv2vc4/wCFJ+Hs/wDYyR//ABVF2AH4i/tfAkH4K+Hif+xljOf/AB6jUAPxG/a//wCiK+Hgc458SR//ABVCuA5fiN+2Cc/8WT8PDHr4jix/6FSAX/hZP7YAwR8FPDx/7mSL/wCKqmwFX4k/thf9EU8PZwP+Zli/+KpXA9G+Hfif4parok0/xM8OWmg6ms5WK3s9QF0jRYGGLLwDnPHtTQHn978Rf2t4byeGz+DugTQRuwikPiOMb0B4bBYHkY7UN3Ah/wCFk/tfDLH4M+Hs4HH/AAksfP8A49RYBR8SP2wVOf8AhSvh73H/AAkkfP8A49SuAqfEf9rzPHwa8OAZxz4lj/8AiqHcBf8AhY/7X5/5ov4eP/cyx/40gE/4WT+1/jI+C/h457f8JLHkf+PVQC/8LJ/bAzj/AIUx4eH18TRj/wBmouAv/Cyf2v8AIz8GfD3/AIU0f/xVFwA/Ej9sALn/AIUx4eznp/wksef/AEKlcA/4WV+2Bk/8Wa8O/Q+JY/8A4qndgKfiP+2Aq5Pwa8OHJ/6GWPj/AMeouA4fEb9sIDP/AApvw106f8JIn/xVK4Cr8R/2w+v/AApzw1nA6+JU/wDiqLgA+Iv7YmAP+FOeGeP+plQf+zU9QBviR+2N0X4NeGOMc/8ACSp/8VSA9O8T+JviTaeD2v8AwrodpqXiQRxEafPfeTCXOPMUSHjjJweM4p2A80HxH/bGyR/wpnw1x2/4SSP/AOKpAK/xF/bEHyn4N+GCT2HiRP8AGgBo+I37YmCR8HPDAwP+hkT/AOKp7AL/AMLF/bFBC/8ACnfC/wBf+EkT/wCKpAIfiL+2Nux/wqDwr7H/AISRf8ae3QBG+JP7Ya4Y/B7wqB6nxIg5/FqLsBf+Fj/tiEbv+FOeFxj18SJ/jRdgKPiN+2GRj/hTvhbnv/wkif40XAG+JX7YSfK/we8Kqegz4lTn6fNRdgH/AAsX9sXcoPwe8K/Nx/yMif40NgO/4WF+2N3+EHhQd8/8JIn+NFwD/hY/7YmcH4SeEt3p/wAJKn+NIB3/AAsT9sdVB/4VJ4R9f+RjX/GnqFgHxE/bMfcB8IfCOQcDPiRQD+tC0A1vCHjz9qS88UWNl41+HHhfTdEdyL66tdfE80KbSQVjBJY5xx70dQOm+JPiz42aW9knwu8K6PrqyK32r+0NU+ymIj7u3P3gad2wOJHxB/bJzx8J/Bx9v+EjH+NF2AL8RP2xnJ2fCfwYceniMH+R9qLgKfiB+2UAMfCbwcfp4jH9TQmwHJ4//bI2nf8ACjwXxnr4ixxRdgNj8f8A7ZMoLL8L/A5A548RZz+VDYDk8e/tmOwUfC7wQuepbxAakAPjr9s1pAv/AArHwOAe/wDwkBx/jVK6ARvH37ZkeA3wz8CKOxPiEjNK7AcfHn7ZygAfDTwJ0/6D7UagP/4Tn9s7K7Pht4DHf/kPt+vFO7Aa3jj9s7f5f/CuPAIdu39vsOfpRcBw8aftpM2T8OPh/wDjrz/4Ur6AB8Z/tqMSV+Hnw+/8Hknb8KfyAQeM/wBtckD/AIV38P8A8ddkpagdr8NPEX7QN9qV4vxZ8N+GNLsViBtn0nUXnkkkzyGBHAxRZsDN8deJf2orbxFdR/D3wp4Ov9DUKbaa/wBVkhnb5RkMoGAd2aPIDBj8VftrOp3+Bvh2uOitrcuf0FLcBv8AwlH7a+cL4F+HWMY51qX/AAp6jSA+Kf22SPk8DfDkk9f+J1L/AIUvUQo8T/tst/zJHw5HTP8AxOJTn9KauA4eJP22T8w8E/DfP/YYmz/Kiw7MB4m/baLZPgv4cD3/ALYm/wAKBDj4j/bZIwfB3w3I/wCwvN/hQgFTxD+24Tz4P+GwHodXn/woYB/b/wC20Ru/4Q34a5/7C83+FGtgA+IP2284/wCEM+Gxz3/teb/CmrgPGv8A7bW7/kUPhqRj/oLT/wDxNDuG4xvEP7bgxt8GfDUj/sLzf4UK9gEPiL9uAEBfBXw0IPU/2vNx+lK4CnxD+3ADx4K+GhHTjV5f8KQHo/ws1T4x3Wl3snxh0vw9p98s4Fomi3Tzo0O3kuWAwd2cAdqtMaO5+1TBdxJ69KdxpXdkKtzKR1YZo6CaDz5hzvNQtNxCi4kxy1VdDOFc7FUsOir0+grMRgal4v8ACOmTtY3/AIl0qzuIzl4p72ON1+qs2RVcrAq/8J94GwAfGmhHH/URh/8AiquKaWwAfH/gZm3HxnoXP/URh/8AiqhRknsFxP8AhPvA2c/8JnoX/gxh/wDiqrXsBpaXruja0skmjarYX6RkBzbTpKEJ6A7ScUmmFy9168VUdEApHG7sfxo8gEVC3AAJpPTcB4Uj5tpLDj1pAICQOTgDjpTavsAgOWGAB9KdrIBWz2yMEnNJAC8Y5APYn0oYDsZ3dx3Pf8KQC7yQQmPala24ARgjAwx5z2ouArfJg9BjHHrQtQG4AY72GcYp9NAFLMV4xgjAxS0uAhYALt6r2NOz6gBfOGUEHOATRa24Dwx29SeOuKQDd2MvgHHHXpR5ANLKFClM8YzTSu9AFKAfMQdoHr1ovcBh4xzwehxTQD0YgFQSR2PpSa6gOXIfBYn8qlgK6jg7MnNCYCGUdOQR1BpqLAQk43MDx054zQAZZ8qOPf8ApRotwFVCPlLA+xFDdwHr065qWAgJzyuBTAXn0pALTvYAGe1NX6AGTii7aAVSMjOcd6d9AFyQOhwadwM3xB4j0zw1prapqrskCsI8rjqfckKBjPJIHFS3oCVzmrr4r+HLTTH1qdZFsI13tcfabTYBnHXzvWsfrFPn9kpLm7XV/u3NPZT5edLTueM6n+2F+zxrGrW5l8X6goEqh7byBskK7gufn45br/jWt7GZ7Bp3xa8KXVmk1i++2RBtdbm02ADjAPnYrJ4mkqnsuZc3a6v924uaF+W6uZWs/tGfDPQLK41HU9etkhs0Mkqpd2sj4HXCrKWY+wBrW5Vup5npH7VH7Pev+IbWzt/GN3dSXVzKYrWaBYovMkx1ZnCqAB3OMnNF0hHsK/F3wsYw631uFALZa8tVGO/JmwazjXp1HaEk/RpiTT2Zz/iz9pb4WeFtJmv9e8T28drkQlobmCZwW4HyxyFvxxitE0x2OS8DftO/A7xJr8dlpHjFr67htoxbrdBIVQRjBILuF3HdwOvJo5opXlsh7nqQ+LPhh13DUbbGQMG8tgcn2MtR9YpcjnzKy80OP7x8sXdnFfEb9p74Q+D7WPTfFvib7Kb4bFFvsnYAEE5COduRwCfw6U6dWFRXg015O4ThKm+Wasyn8N/2kPgv4u1G/m8OeKhe3/mszNdFIHCN0RA7jdgKM49BmidSFOLlJ2RDlFfE7Hf3fxh8HadGk+oa/p9urHaDJf2yfzk96VOtTrQ56Tuu61Q1aWsdTznx7+1t8DNEv7LT9a8dPb3EDreIbDE6sOQAXjYr25Gc/nV3DY2Phb8fvhH4m0cXHhPxPb3TIxineeSOCdyvOdjuG25fg4x27VFStTo/xJJert+YpNR3Z2N78ZfA+muo1DxZo9uzLuCSalbqSPXHme1ONSE4qUdmCakrp3R5P4y/bD+AGm65c6bqHj24ivbRDCXtITNFkqcFXQlWHz9j2q7oZ6R8Nfix8NvEvhWHVvBniPTZrF0Du8t5DFLkALl0dwVOFHB7YrCpiqVJ8s5JP1S/MlzjHRvXsa918XPC9lcQxT6nAIp1Zo7kTxCBiCAV8wuBu5Bx6c1spJMvYx/Fnx++GXh/QLvVNZ8YaUtqkLlzbajbTybOh2okpZiM9hTck9hHl/h/9rL9nnX9csdIg8ezXBlllCQ3MPlQl3Ucs7MFUYU9TjNK4HtSfF3wjJD58WuWDRBd2/7bbgY9RmSohi6E5OEZptbq609SVUjJ8qevY5P4kftI/CbwpoRl8U+KVtoZpUVfs0scsud2QQqOW2/LgnpRDE0q9/ZyT9GmazhOHxJo5DwD+1Z+z/4j16Oz07xtLc3cNvGlt9vjW3SPZx8rOwG4luByeT61cpqKu9iD1yT4zeBre3e8uPEOnwwpgNJLewIB+b+xrOliaVZfu5J27NP8hRnF7M4jxv8Atg/Avwnapb634zgkF6JIh9hdLkr8oB3eWx28HjNbcyKIfhj+1Z8DvE0Vxp3hfxgJJIJDJJ9sCwPIW/uhm+bAAzjpxUTrQpLnqOy89CXKMVeTsjvLr47/AA7sbdbq98W6RBEzmMGS+hUlgASMFs5wQfxpwrQqLmg7rutUNSjJXi7o848fftqfs+6DIugax43aRpglyJdPQToAr9N6NgHKYI68+9NtMDc+GX7Ufwb8UeHo4/DfjFbmOyP2c/bWWKZ8AEvtJzjnGfY1lUxFKjrVko+rS/MUpRhbmZ1F5+0B8MtOVHvvGmjwrKm+PzL2IZGcE/e9Qa1jUjJXiyvNnk/j39tv9ni11E6BqfjC9aW0LM0thbedG26MgFZVYDjdnjuOaG0xHo/g/wDaf+EnjHR4NW0TxZbNDIoys7rHKnb51zlScZ5rKpiaNGyqSS9WkKVSEPidjS1P9of4U6Oxj1PxvotsygMQ99HwD0zg98itudDTPE/E37dH7N9x4mhuZvFWspJpkiR4t9OyjmOXdw24ZBxj0x9aOZMD3nw58dfhx4m0eLXdG8WaXNaSgMGN5GrAkD5SpOd3IGPWsXiaMJ+zlJJvpf8ATcLqL5ZOz7Hb6Jr9prSSNbh/3RUcj7wYZBHtz+hrdSvsOxqc9jTEFABQBwnxA+NXgP4Y6rpui+Lby9ivNWRpLWO3spJ96qwU8oDjlh19amUlHcaV9jjPGv7S/wAILfRpBrupazp9rvVnkOmyk8HpxyOgrPnVx8pznhv9vL9mqdrHwzpPi/Ury7IECL/Zc4ZyPXK4/Wq5luKx7Z8PviV4W+JOnT6t4VuZpra2mMEpkhMZDjtg9aaakI63IzuHX0IprQ05Xaw5G+Uk9qpEyWthznA9fpSauhJXG7hU8rCxwOtTPb2M8sR2yR27Mp9CE4otqI/DXTtN1H4ieK9Xudc8XQ2kwjudRu9R1JpZd+05I+RWZnYkADGMnsK9KKskkib2M7xT4eTw3PZrbeIrTVob61W6Sa1WVAhJIMbrIqkOpU5xkehNU42dmhJpq5m3Jf7NakM3KMeD1+Y1rK3KiY7nZ/DL4L+PviyLl/CViJI7eRbZZZpPLjlumG5bcOeA7KGYZwMKeaqjQ9sptWXKrv0M8RiPYcvut8zS08z2L/gnlrGt6V+0rp+hwahPDa6hY3sF7ArnZKEiLAMOhwygg/41xYiK5L2N1c/VtV3ZKEfT2riv3KA5Xjb97+GjcAddmCBjI55oTuARop5IJ9s05NgJgBSfftRrcAVcMy4zxQ3dIBXDbdpPoBSjvcBUQ5+6CO59KG7gKzZJjHGT2oS6gKoZRwBknJHpSeoChiSVzyPalbqA2QAA4Xg9T704vUAyBjlQe+aABWYMQSCOKHYAH7wsARj6UfCAMoRNu7JznHrTvd3AYp2cMnXrTtzbAL99c4yQe3pS+FgNIywzkA8dOc002gHscsMJnacdaSQCorMpYbfm9ulJtAMUfJncM98+lN6MBRkfOCODx2zR5AKZGY/LjjjrSsuoDSCzZHJznjt+NVeysA58IAMA+gqVqAoYrgKN39760WvuA6QZHzHgHtSQDgMZyeppAAPY9aYASQOBzQAtAB9KpMBRyCKSAUY69cdqoA6KCfwoukB5t+0OP+LV6nnuVGRz/C1RLYEfml8avj54/tF1r4QtewroiCKNUFsiSbCElADgZ+8c/SvnYcLZXDM3nCp/v31u7bWva9tvI9N5xjJYT6i5fu+1lf79z55keRW87exfO4EnnP1r6E8w+jPgr8ffiJrJ0L4OtcW/9ieXJEVFrGZWjVWkIMmM/eFfP/6r5Wsz/tj2f7/e932tte2xx/UaHtvbte8eY/Efx5rGtXl3oV9sUafeTIjpEsbD5sHO0Angd6+gOxts4a1uZrG5ivIJGDwuHUg+lKUVJOL6itdWZ9PeC/jz49+LNnq+n64bZYtC0eaa2Ftaqp8wKQCxA5+7Xz+TcMZZkFSdXAwalPe8m/z2OPC5fRwcnKlfXu2zwHxf451nxiYf7TkG6BDH8qhcjOcEADPPNfQnbcz/AAn4n1TwT4k0/wAT6MwF1p06zx7wCu4dAQeCK5sZhKWPoTw1dXhNNPpo/NGdWlGtB057M+mdI/aK+J/ifwP4g+K09xbx6n4cmtorUx2ieWqu4D5XGDnzD9OK8LB8I5Tgcvq5ZSg/ZVHeV5Sbb9b36IrLIvKJqphdHe+uv5ngHxO+KPib4s+JD4m8U3aSXflJDiNFRAqg4+UDHevTynJ8HkmH+q4GPLC97Xb1fmzuxuOr5hU9rXd3sQfDn4k+IvhV4pg8W+GbiOO9gR0TzEDqAy7TkHjoa0zPLMNm+GlhMUrwlvZtba7o82vQhiIeznse4+L/AIy+O9d+FWl/EzVblZNQvtTe2kYWyCMRpnYANuP+WY/WllmV4XKMNHB4SNoLZXb333ChQhhoKnT2R86a3qt1r2oz6ndv+8uHaRgOACeTgDgc+legbHV/Cr40+Mvgzf3uo+EriJZb6EQSefCsilc54DDANeRnORYHPqMaGOi5RTurNrW1unkc2JwlPFpRqbHq/wAXPil400nT/C/iWeZhdeItNNxdM8ChWlycgArgcSHgeorvwuFpYKhDDUFaMEkl5I3p040oKENkfOdxPLeTPcSyMWkYnrnHNdBR6l8K/wBoP4jfDrRX8FeGL2BbLULrc++BJJAXwp2kg9ulfP5nwxlmb4qGOxdPmqQtbVpaO60TtuclXA0a9VVqivJW/DVH3f8AEuNIvC/hm3tQDmVug74j5x3r3U3uzt6WPzt8deM9b1mWfR9RcgWl1Mowiow5IIOAOuKsk5GzuJbG6jvIXO6N1fA74PShgfV3wx/aD+KPxK0rxBDqN1Dt8LaJNqFmILRARLEhKFsLzwnQ+9fN4bhPKcHWrYilT96qmpPmeqlv10+RhhMNDBV/rNDSW/fX5nhPxV+Nfjb4x3lnd+Lb2OT7DGY4liiEa4JzyFHPI6munJeHsv4fhKGAhyqWr1bbt5s9fH5piszaeIle22iX5HKeG/EWoeENesvEeluFubCdLiLccjzFOVJB4OCAcH0r1q1GGIpypVFdSTT9HuebKKmuWWx9Mn45fEj4m/B3xZ431+63XGhXNrFAYIFRVR3AcnA/2/w46V5OS8P5fw/CdPAQ5VNpu7bvb1bMMNhYYRP2XX5nzV4n1/UfE+qSapqMzGaXBfngkDGcdPSvbOk1Phr8TfE3wk8Rr4p8KTxJeKjRASxh0w3X5TxXm5rlOFzrDvC4yN4Np6NrVbarUxxGHhiYezqbHu3jD4oeOdY+C2i/FXUJydT1DXp4JZFgCoECDYAMYA/dj64NXluXYfKsNHB4SPLCOy1f4u7KpUo0IKnDZHzZrOo3Wr6jPqF2372eQyMM5AJ5Nd5odh8LPjf45+DL30ng66ijOooscvmxCQYGegPTqa8POuHMu4gjCGYQ5lG9rNrffZo5MVgqOLt7VbeZ618aPHni7RPDHgfV/tM4k8RaRPcXZddqySl8t0HpIePQivXo0oUYKnTVoxSS9EdapxpxUY7I+bJ5XuJGllzuY8c5wM1qB6V8Kf2gfiL8KtNuPC/g+9iSDU7lXk8yESPvICjbnpxgYrwM44ZyzPatOtjoOUobWk11vsnqceIwNHFyUqq28/meh/tNeJ/E/hXxhL4PWeVrG+0axuWjlXG7fGCSDj++p6ele7FJKyOy1j5zljO0SO7GRjkk9fxqgWjue/fs8/Hv4kWOueD/AIRWN9H/AGFe63awTIIA0pjknXzPmxnpnnsK+exXC+WYrMY5rVp/vY2afNK11tpexyTwFCrW9vJPmXmfr34UQC+1QLjhoMf98V9DTZ2y3OmrUkKACgD4d/4KLfELRvAHiTwNc6r4L0/xCZrO8aMXUskZhKvHypjOeSefpWc1cez0PgLx98UrPxZrUeq6H4Wt/DqIm1re2uZZkkY5yxMhJ5zUKIXOS0jX9R0fVoNWsJdk0OSrAD5Se4z35p20sI/VL/gmfqM+p/BHVrq5k3yf27OrH1O1ef1q4KwH13uPrV2K5mPDYOCTjHalYvmJFX5txbOaXMZ3FKAkn1pcxSnZWOA8RFTp12yg7fs0gH/fBpIg/B2y1zVvD2sT6jo189rcbpI96gHKk8ggggj6160dkZtJ7ljUdY1HXZI9W8Q3Ml/cOPJgTCpkA+igcZPQckk1ppFc8/8AhyH/ACwOz8X/AAQ+Nfgjwhp/jbxx8ItX0rw3egfZr64sGiTDcrlhyhOeN4596SxMZPlaRCodVJ3OZ0bx1408EQNF4P8AFGoabZ3kq3WyCTb+9UFQx9GUEjI5wfem17N3i9H/AFYuEuf4t0ez/wDBPli/7Ufh+SQkk2l+SfU/Z3rmr/AabH61sr/eB7ZzXCmtmaPcdtLcEkY65/pU3sIb3LAEHHGTQ9EAIwLdOOmQaN0AoIVA2MEnmna7sA9CSTk8dvWpdgEAYL8zd+M0IA2lThGAHpRddQEABLYbHPNMBR1Vlzz1NHkwAhWYjqDzSvoApVfQ8D8KLgMwrOeuQM8etVqkAP1OT0A/WhbAN2/N5Z6Zpt6XAbjaQQc/hVLVWAcSd+fvHHekvhAFyCSN2DzkCpYChd+DzjJzz3ovYBPkAIG4574o1uAmFJ6n8uaeoDwEUb8Zz0FK7egCF9+MrgdAc07WAAAWXaQTzx1pbAAZQ2SMEEjA70WbQCkpuJbkAgDFLW2gDkC5yrnr0od+oDjgjOSKkAIBPLdDmmA6kAnGcnFNALRcAoAQcdSTQA4fXFNAO4PQVdgPOP2ht3/CrNRGBgyLu7fwPWc9tAPyf+P8PiHxB8UtSu00W4eOGG0tY2gt3KskdtGoOccnA5980gPPB4Z8Tt08Oanj1+ySdfyoA9H/AGc4/E/hr4u6RfNol1CrR3Fu73Fs4QK8TDOSAAaTVwOZ8f6V4s1zxz4h1ebw1f77zU7mZvJs5NhLSMfl46U9gMF/CPisIf8AimdU9P8Ajzk/woA9l/ZnuvGHg+bxcE0CZDNpLyRi6tXG+REkUKMgZzvbge1FrgeMHwr4tLMX8NakpJz/AMecnfn0oARvCnikow/4RvUycf8APpJ1/KgD2r4by+LtL/Z1+IHhxNBn3XssKLDJaP5zq8sG4qOpx5S9B60rDuzxseC/GPOPCmr8f9OUmf5UxDJvBPjTOf8AhE9X6Dn7DJ/hQB7XrL+M7z9l3RPCJ8P3LSRaqUe3WzczrGjTspIxkZMp5+lAHjf/AAhHjLp/wierjjp9ik/woAil8DeNSwP/AAiOrkDv9ik/wo3A9s+PN5488YeB/h1pz+HJ5/sNjLNItvZOWjlZYkKvjOOI14PPWgDxv/hBfG7D/kT9X/Cyk/wpOSQFvQfBXj7Tde07UrfwdrCtbXUUy50+QjcrggnA6cUPYdmj9HPiHcz22leGblCpljuDLyvy7h5Z6eme1JIGz86vF2ieN/EHi3XNZn8Jal5l9qE9w/lWMmzLSMfl46c07hYyf+EG8aup2+EdZ+b/AKcZP8KdwUW9T2z9mSLxt4PtvHkQ0C7tnuPDt2YVurJx5svkSoFXIGTh24HOcVL3EeLp4F8dFQB4L1k4GAf7Pl/+Jp3Q7MbL4B8eSD5fBWs88f8AHhKP/ZaLpCPbfh3aePNH/Zt+I/hgeG72OS9ntljt5bJ/NlWR4t5UEZOPKXoOxoVmB4wPBHj7A/4ozWj7/wBny/4UXQ7Mim+H3j6XAHgnWwCeo0+T/wCJouDTR7trVn8R7v8AZP8ADvhFfDN9JNF4gYyWqWL+esUQkaNiAMgZkbnHORSvZjs7Hiw+HPxLfOfAGugkn/mHS/4U7oVmQv8ADD4lO3/Iga4COmNPl/8AiaLg00e7fHrS/iR4j8A/CzTofC+oXjWGlTvcRQWLs8MzeUpV8DI4jHB9DSVkN3e54s/w0+KEgz/wr3XAOg/4l0n+FPmQrMbY/DH4pW2q2d/F8PteSS3njkUnTpMAqwIJGPUUXQrHt/7Wnh/4leMPipYahp3hLUtSgtvDun2yS21k7ICFZmUkDGQznP5Uk0M8ZPwq+LkuFX4a67g+mnyf4U+ZCOz+Bvwy+K+gfGXwbrFx4A122t4datPPml06UJHE0oVyxxgDaTz2qZPoUtD9jPCW1b/VCCcb4QD/ANs60p7Dlqzqx0rREBQAUAfJX7bX7Oknx68QeGZV8aWmgLoljOD59hNceb5so6GMcY8vv61nUdhpXPmfR/2NPh9pjXGj+JZ/Fmv30Evy32h3FhaWsiEAgCO7dZQw5ByMZHHFZ8w3ZC6v+wlo2t6lFJ4b1rVfCFhFAWlm8SfZ743EpbAWJbFn2gLyd+Oox3p81wsj7N/Yy+Dz/BT4aX3hc+J7TXkudTlvEvLWCSFCCApXbIAwIKn65qotiZ7+OlaoRLDsJwRz2qZXAVwFcFeCc0lqioq71HiRccqc07IfIzgfEfFhdkdRbyf+gGpW5Frn4K3V1Et3OWsoTiV/7394+9e1GatsYuN+rN/wd4ktPDPjDwv4yu9Lju7PRtRt7me0HIkEUocpg8ZI9aK3vxTQoLlbP0Q/aO/b1+CPjX4GeJ/Dvh/xBNruo+K9Pazt9Lewlje2ZyDvnLjYvl442kknpnrWTakkktiadNwm5H5pySrb2FtDJCkjktJhgeAcAdD3x/KujmUIJND6n0N/wT8njm/af8PILOKM/Y787lzn/j3f3rlxEk6bSRoo63P1o/eDClhz2xXmKyNA3kfJjBzgU7dQGqhIOQQ2euKbYDlAQljwKnfQBGIC/dA3etNAG3HReAcDHei4AFVgMZ54/Ki7QD/lU4xyeaTTAb1J8vA9c0eoDsgHbjH8qPMBpZlfqMelPRoAZmIYdB0B96SATAwFxhl6U/MBDv4KjAz6U1bqAjFiQu4Zzn0oVtwByTlTgj3NCS3AZkqM4ORkYqtGwF3fIOxXoKGrABO5+PlB9aWyAQEDgEn36Ut0AEjI+YnHtTAQEnHzfUelC01AcDhenXr7UN6gG7cwGAfShKwBv3nLKOO3elsAm7gkkgDkDtT0Acrc5XqeSTStoA9mbgZXPpSVgGhlAzg56NntT3AduUYGOCCMmlYBeQQxHXrmjyAUHoTlcjp2pAO5zz0oQC5PvTTsAd+lFwAMR0FF7gedftBFD8LdQUgnMi5H/AHqZbAfBPif40eCfCGvXPh7WLvUY7yz2h1hgLL8yB1wQfRhSQFJf2lfhqMbr7WCVAwRaNg/X5qYGt4X+OHgfxn4gtfDmj3mpNe3xYRiW2KoSqljkk+gNAFPUP2jvh5pt7caZc3WsCa1laGVRakgOpwcHd0yKAK6/tOfDdX3Pc6yQORi1Of/AEKlYDd8KfGrwh40bUBokupFtJs3vbjzoduI15O35uT7Ux3uYaftQ/DUyBvO1ornOPsnQf8AfVJoRMf2pfhnuJJ1o54P+icf+hVOvQDe0744+C9Z8Kav4yshqY0/Q3jS53w7ZPnYKNo3c8sM80dQOeH7U3w0DM6vrrZ4/wCPbI/9DquVAL/w1V8NkDNjXTkYJ+y9P/H6OUDcufjj4PtvBdt4+Y6mNLvbl7JNsIMu9c5yu7pwe9S0D1OfP7Uvw4IJJ14knnNqP/i6roO+lhi/tS/DiMZkTXDx/wA+w6/991Oojd8R/G3wl4RsdH1XUk1MQa/bfarXyoQxC8ff+YYPI9admwM22/au+GkYy0Wuk+1suP8A0OjlHc29G/bC+FsNxFE9v4hZncIP9ETGScD/AJaUNDue2fEs/a9I0MoMeZJKygj18vH0pCZ87H9pn4b6XdzWV0Nbd7eZopNtsDgqSDg7+nFOzEWV/az+GEQGyDXse9qp/wDZ6OULnT+D/wBoHwP43TVn0eDVf+JJYS6jcGe3VcxopLbfmOWwOBxU21Hc58fthfDAcfZdfb3Fsn/xdVyg3cmX9sf4XR5Y2PiDKj/n2T/4ujlC502k/tIeCtc8Gaz46tLLWF0/QZIYrlXhTzWMpCqVG/BHIzkiptbYRz3/AA2f8MB97TfEJ2jI/wBGj/8AjlVylcxOv7bHwsUbjpHiPP8A17x4/wDRlLl1Fc6O8/aX8EQeALH4mPp+tHTL+/fTo0WFPOWRBkkrvxjj1/CnYGznV/ba+F/fSvExx/0wi/8AjlHKFxx/bh+F0fJ0XxKD2xBF/wDHKLMaep0vjD9pvwV4M0jw5rmoaZrLw+KLNr61WFIyyIpAIfLjB57ZqbDcmcyP24Phlt+fQvErEf8ATKH/AOOU0r7E3RYj/bo+GQdY00DxIWc7eY4sen/PSk0FzpviF+1L4K+F/iRPDmuaVrc9w9nBfBrZIygSVdwGWcHNFgvYyrP9vz4XWv3vDniZvpHD/wDHKLMaep2vgf8A4KA/DHxJ4j0rwpaeGPEyXWr3kNhC8scARXlcIC2JM4yRnii1h3ufZXg4n7VqXqWhH/kOtKT0CWkjrF6cCtUQL+FAB+FAHjHxy8b6F4O1/TjrV9aWxuLQNF9ouEj8zZKdwwxAI5H51jU1eg07HzlafELwzZazfJoukeLddt2uGke50/T5dSi81zvdBMnynG77oPGcdqgfU1dZ+IHgPxTc6Zp2sX3ijwreaazXsUWrQPpcN6hIRlIkIEwU4OO340w2Ppf4E67oet+ClGgapbX8NnNJBJJBMsgVy5bBKkjOGU4z3q4KwmejjIHStErCHLuzkKTimwJAN53k7TU7aD5WBLA/f/SgdmcL4jy2nXf/AF7v/wCgGpRCv1Pwt8LaRZaz4iuba9TzQod44fN8sSN5gXBI5wASxA5IU4r1qa5mo30Ik3FXQeLbSx0PWWg0uAxW8ybntZXL7MMQOTzyAGGeRurR/um4LVCScldmVLJaRQwyxWKB5ASSzFlGDjpVNxjFNIVtbHo/wn8E+C/GGk6nqHiy9ma6EnlLsuBELZMA+awx83U47fKfw1oUo4hSlUlZr8TmxFWrQlFUle719Dvv+Cf8cUH7VmiQwzCWKO21FEkAwHUQPhgPcc159fSDOyJ+tJbLo2DxnNeaWAjUEHAU54561XMwHsu4YyRSTsA3ZuyD0OKE7AMYByQCQOn4007ADb4yCSSMcY6U1Z7AAZs5JyV7D1oaAd8zFTg5ApANXd1Kk9uP5UAN5U8t904GarcCRiTgYwfXtUIBsmTGOQQD1qo7gJlWIDZyQBTs0AokHl7S3NJxd7gIxG1cKR6U0tQGcj5sAZqkk9ABcA4Yde/pSd+gAfpinugE3HoRmlqgE69KW+wBwODTbS0AXA9+KNwDdngik2AErxjr/OmncADAcYHr0pXQCdc9qLXWoDt4Vflzu9aL99gFzuG5umR0oXkAvAXq3Oc84pdQDqAACQR09KNgH/KnzbzgmlvoAm5Mk7eDzyOtOzAkJyMEEZ6YqQGhk3AjOenNOwD9w6ngVICHOQQ3HemgPPPj+MfDK9IYgGdAQB1+R6UnZAfk3+0oukj4u6p/ZcUwxb2QnMmeZvssW8j23Zx7VK03A8vLADPX6VQ7XPUv2YpNEX40aI2uxztB5V0IhF94S+Q+09enrUy1QtOpyPxI/ss/ELxK2iRSpYNq10bdZSd4j8xsZz3qgObb7poA92/ZOfwjHP41/wCEptbuZTojkeQT/qdr+YOo5zsx9DUveyA8LBiUttTILEjOeBVAMeRQT8mPagPI92+F8/hRP2Z/iRFqdndPfmWIxuhOzeZIPKzgjOD5meO4qOqA8KUhfkMeKsCObbjBHPHNNK4HvWsyeFm/ZF8PQw2Nz/ao1pl80n92XD3BkPX+4YgOOoNRbUL3PCXYKNwTA9qoCOR9ygBffJpXvsB9A/tIT+DpvAHww/4R7T7uG4/s6V3MrZBh2QhV6nB3iQ/Qikhs8EyoBHl/melUIt6BLaJr+mPfo72q3kJnVOrRhxuAOeuKTQbH6d+KzbPYeHDOjmHz3O3PIj/dHGfXFQirH5r+PzpJ8beIJNDhkisG1O4Nuj53LH5hwDkkk1oSc60g5IU0Ae9fsoS+F408fL4js7m4B8O3TYiJGIvJl3Dgj+Ip+RqXuCseFKIk6x5/HHFUAyZkIPG0HjHWgD334UT+GR+yx8UbbULGeS/aa3EUwztDmSDy8jPbEmeP4h+EtO49Wjwneij5oBVCK1wVcYAC89AaAPojWJvCsv7GegRRWEy6kPEpAkYkp5gEplPX+JTEBx/CenebajZ4NKYI1GYVBPpVCM+5kUnCDaOpHqKAW59FftFXfhuX4Z/CA6Xpckc66RcOzOxIMR8kBeSedwc/iPpUR7FSPAnnhK/8eygnpxVkjLCSH+2LJ7mHfAs8ZkReCy7hkD8M0mtAR7/+2HPodx8VtMfTdOaIr4Z05ZxIc7nw5DDJP8BQduQaIjZ4PM0K/dtkGaYjrvgPcWUXxp8FyX9sZoRrdp8inBDmUBDnPZtp/ClNWWoLXU/bfwSCJ9RZmBYGDODxnYaKS0sXLVnYDoK2RAUAFAH54f8ABU7SNT1jxV8O7bS7OW6leyvlEUUZcn95H2FZzdtQPhy50L4neFrMs9rr2l2atk7fNhTJ74GPSoTTGYctxr2v39vHf3l5qE24RxLNK0rcnou7OPWnfqFm9D9Tv+CY9lPpnwQ1yyu4XinTxHcFkZSpH7qLHX6VUZIR9hAMRkLkfSrugHB2UEFQMilZMa0YFxjIp2Lc+w3efQUWFzs5HU4lnV7dvuyJ5Z+hGDUIg/MfxN/wTK+NkPiG+PhTxL4VvdM892tZrm7mt5zGSdu9BEwDAdcMRXasTG2pNjKb/gmh+0Y75fVfBbMx6nVZiT/5Bp/WYAk7E0n/AATT/aJlggjXUPBmY1Ib/iay85OeP3NaPFwskTytO42P/gmR+0i2fL1XwWMg5H9rSjP/AJBrL6zDYqzvc9w/ZH/YZ+InwS+KA+JHxF1vRP8AQLSaCytdMuHmMskq7WZ2ZFAUKW45JOOmKzqV1UXLEdj7WUuwbbxjgCuW1hjmUEhzkFaAAtkFVPzdPxoAXnG32xmgBmxgvyEn8cU7gAdlXBDH3YcU7JgKDuIwv40tgF2qzbupHFF2lYBw4FIBgQgAAY9eM02wAoR8wG5venfoAmUDFCMcYo13AjIaNhkdOa0upIBQF67WODzU3YCMWYZ5IHAprQB5QkjdgDFSpW2AiIxx1I71SV9QA56k5zTWgAGAYEg4BpT2AT2px7AIc88VDAMmknYBQ2OcdRVaPUBM8001ewCjrijW9gAlvxoeiAXB25xgZpMB2BjGM4HbvRsAgySFAPrTv1AdubAxkL2GalJAISyqNuMd8UWuwHbXLBiRjPGe4ob6AKquQcdD69aHYBVRQpzkg+lK+oDiCflK8etLzAUFgSMDHX3oA4D44Wt1qPw6vLaxt5bibz48RxIXY5DDoPciiS00A+Rvib+y74c8WeG9U8S6PaeIpfGeoJFtgnskWBWGxGGSu7AjXjnOa+bhUz3+0+R04fVf5rvn2vt66HpuGAWF5lNur2tofJDfs5fG43v2VPhh4jaLzNgl/s6QDGcbunpX0Ts0eYfXPwy/Za8K+DfC2leJdU0rxB/wmlij+ZFDZK0HmEso+YLkgo3POc1863nrzTlap/Vb+fPa2nzucn+1e239w88+LP7JuuzaPcap4L03WL6+lmkuLmGWxRXYbd2I9q7mYvuGM9K+i97qdmh4voH7Mnxu1HWbOy1H4a6/Z200gWS4lsnVI165YkYApSvyuxLvbTc+w7P9mXwT4QsAPBkfiH7Zqlg1jqDSWKhYw68lcIM4b8K8DJ/7bdSbzXk5fs8l/nc5sN9Y19va3l3PB/jD+yN4s0uyhvfh9ouq6xHCirLAtgFn8wuRwqLyoXBJ9a+gu+p1HGfC79ln4pa341sLXxf4F13SNKEvmXNxNYsFCA4I+ZSCcdBg5rmxssQsNN4RJ1EnyqWzfS/kZ1+ZU37P4uh9Wan+zD4H0XRdR8KeFW8QXGmayscl072CoVljcFRgxgYOOeD0rz8lnm06Tlm6gpX05L2sRh/a8v7/AHPnD4wfsmfEbS9ZF14F8J6pq2nSsscEcNoDMihBuMgRFA+bIHXIH4V7Kdzct/Ab9knxdrnjCM/Fjwxreg6FEG89nsiZXBU7fLDIwJDAZ44BrizKWMjhpPAxi6nRS28/wM6rmoXp7n0P4g/Zk8GS6Rb+BtHl14aHZXIvYXlsVLNK/EgwY8YHzY4zk1llU8e8MnmUYqrrdR2t0sOip8q9rufKHxB/ZV+Mek688WieCdS1a2m3SJLZ2jMiruYKpwoAbABIx3r09GU9D0j9nT9kG81S5vbv40aLrWj2XlskUIsz5xlBBBwY2+QgnkdxXjZxPNKdJSyqEZTvqpOytb/MyrqqkvZHrPjP9mXw/wCILa2060fXfs2h2s1ppglslIYdY2YtGT12g47CvQwkq/sIvFJe0t71tr+RpC/KubfqfKHiL9lX456ZrM+n2Hw/1bU4027bm1tWMUhK5O04HAzjoOldJT8j374F/sdeH5vBEuofFey12w12SQyW9nFZEtGB0D5iODkZHzdMV87mNTPY4yEMvhCVHTmcm1LfW3y28zlqfWPaLktyaet76/ge06rpGsX1po+nHR9UeS0kkaX/AEKQ7YwIwGyFxk7Tx7dK96zO1tNHzv8AFr9kDxJPpsl74H0/ULy5Xz7q4hmslSaRs5RY9iZYnJyCa0V+pB43oH7K3x11PWrSwv8A4b63YQTuA9xPZOsUf+052n5eOeDSdwPs3Rv2ZfAfhLQnHhyLX/7T1bTTYak5sgI0Dx4criIZAYnGfXpXgZc87eLn9fUFS+zy3ct+vyOei6/tXzvQ8E+M/wCx34tsbeC/+HWkX+qxxRIklstoyztKzHJAEagqBjvmvfV2dDOP+F37JXxW1jxdZp4z8G6voelwyxyzzXNi5V4gw8xAdrfOUJ25XGeuKiq6ipydO3NZ2vte2lyZc1vd3PrLUf2Z/h1peh3/AIT8JDxCthrCpJdvNaH78bAxjb5QHPGeDXj5M84lGbzdQvfTkvt53MsOq2vtWfMvxk/ZI+I+n6ybrwD4cvta06SQpAsNqwljQKDulHlqASSQMZ6V7huT/AL9kvxhf+NIbj4teFNV0rQrZh9rjktnWWeNlP8AqsI2SGxnpwa4cxWLnhpLANKr0ctvmZ1VNwfs9z6T8Tfs4fDq80SDwb4etteg0K1vPtyK8L5Mrrh/vRH8OO9Y5TDMIYe2ZSjKpd/De1uhNCNRQ/eu7Pkz4ifsmfGLTdcMXh3wtea3bTqZVntLdykY3kKh3Ip3bQCQB3616hseifs2fsmM81/qHxv8N6tY2jI0UNoIJRMZRgq/yxsNmCR1ByDxXkZzDNJ0VHKnGM768+1vknqYYhVZK1F2Z6145/Zz8N+J7Cz06yuNWtLfQ7ae00yKS0kcbSdybj5RP90HjoK7cEsRGhFYpp1Le9ba/deRvBNxXPufJvir9lD426ZrdxZaV4Jv9VtU2lby1t38qQkAnblVPBOOgrq1A98/Z6/ZR8Kx+Fbm5+Muj6zb6nPIHtraGCYNCAMNvxH1yMjBPBr57OaWeTqw/suUIw+1zpt76207fic1aOIlNeyaSOk+K37O9r4+SbU9Mub2LWvsVvZwvdQS+SoiAXkLAT93PQ9T2r3oqSVmdXqfKep/stfHiDUJ7aL4fatcwRSskc8cDbZFBwGXIHUcjiquI+r/AIRfsyfD/wAN+BtN1PxVZ6wfGdlILy3aJJ1jikVleEMPJxlSBuGSCc8189iY55PMIvDyprD6XTXvW69DnnCt7W8X7p9q/Ci7/tHT769Ec4VpY0JmheLLBOQNwGQMjkZFfRw0R1N3Z6ABJjGRWge6LkryxJoFvsO/CgR8fftz/Cb4mfEXxP4L1X4feEp9cGkW9yt0sV6tsU3uhXDEjrtPT0HrWc1fQD5Y8b/su/tNeIb23utF+DOtWUKoBLBJrsd0sjjqfmk4B9Kjk0KvocNpP7H/AO1DpmuxXEXwo1Vbmyf7QM7NgxzgNu2n6A5p2Yk7H6HfsL/D3x/8OPhrq2jfEfRLrTdVuNVe7ZJ5Fk3K4wCGUkdhwDxkVUI23Bn0n+FaCAHByRmgBcEgtjigCWPZsGRzUO9wOTuAN/Tqoz+VSBDhUy3T1oA4rxx/wsv7akPglIPs0kal5n8otGw8zeAHIyWzFt7cNkjuXA5oR/tDm11LfJpiEaTK1ltaIy/bfLAVT/DyzMc/dzGOzUXA3Pg4fiIljqaeOjqJhWWFdObUmiN2R5K+cZPL+UjzM7TxnnAAxVJ9xnoDneCp6Gk3roIYUGNpPGMUgFRdqhc5oAUhepoATqcEcDGD70ALkZxnmgAIyMUAIFHBpgKOuMUgEyM8N1pgLkDqaQCEluFOPensAxlB3Lnk800wHBUdQTyB+lF2mADA/j4pAIo2PtA4bvTequBGVBJAIGCepqk7agNbHQfnVK/UBAMjoc0rp7gIe+e1Hn0APr3pJgIc4JBGR0pW1AX0qrbWATpkVOsWAHqKHZMAzzjNF30AXJJ4xT9AAnjr0puyAMn6D1pMAyeRQ2A4MoXvu9afUBQ+AOB+VK19QE3YOSee1NqwDvMJB3ZqVHsA8OiucnAA4pWbQBvGQyseTzk9KLMBeCSNxz0zSARVdXBHTNVdWAk8+6U/K5AHGM9RSuBialB4pvb6TyNaeGzmniYqjkNHGqndtwOCXA6duvoWBs2095DAkC3csgjULvlfc7YGMk9z70J23E1fQnW8vBjEzA/Xik2M582viqe7X7Z4ima082eQiFjG+1yNicdlGf8AJzRruDsdB9svhwJiT65NPcBs93fNDIsVy0croVV8Z2nHBoTYGRYW3iNLqObU9cnnWCKJFWNyqyOAd7OD1yTn8B6UXA3FvLwKAZmyOetFmFirq761d6dNb6XqLWly+3ZNz8vzAn8wCPxpO4FPTYPEEFzPf6nrM80skj7IllPlKhwF+XpnCj6EnrQgNT7bftybhsH1p30AparJr92kP9nay9oUbMgGcOMjr9Mf0ouAzSI9bt5Zb7U9Wnmnmdz5YkPlIpb5cL2OMfnj3os2Bqm7vCufNbj37UB5mZenxK+oLd6frDRW6xEeQTwX2uAenIJKZ/3aGncCxoyahY2McVzqdzd3DKvmtJKWG4AA7c9B/M80vUPMvfab08eYw/4FRdCsR3FxfvDKkVw0UjoQjg8qSOo+lGgzFSy8TSzQJf8AiKaSFGmeRoSY2O7AReOwGef8aNwOkF5P97zG/PrQg3K+qNqd1YSw6fqL2lydpjmAztwwJGO4IBH41TQGXptp4kju4ptV16adIIIkRYpGUSSAHezjuCT/APqxyJBY3xeXPeRs/WmAy4ubuW3lijuXid0ZVkU8qSOCM+lKwFLw6uuafYvBrGqtqFwZ2dZSMbUIGF/Agn8aFe41qaf2ycD5m78/NRYLFPXm1bUNLks9J1F7K5crtuASGQZ5xwe3rx68UmgasP0p9RtdOht9RvWuriNAJJsn529aq1gsW0uJWyS5PPY0rFNJbGV4kt/EGpW8Eehas1i6OS7bypYEcDgHPrSZL0NiOeby1DuSwABOepx1ppXEKZZccOc+9OwzF1aw8R3Wt2V7puvG0soDEbiDBbzwHJYY7ZXAz1qLtiNszSMfmc5AHOaa1WoJK+ou4HBLZx0p6mtogWGBt65oE/IduZhhjgUDStqSAucfLjjrmmRZIQ4BIY5J6c9aBNXMzX7TU7/TpLbSNQNjcswKzA/cAPYYOfpSdg6lrS47qCxt7e+ufPuFjCyy8je3rzzQkIu09gOG+JfiP4n6Be+GIfh34Eg8RW+o6otvrMst2sJ0+04zMASNx5b16dOaTYEmo+I/iDbTX62vhFJlhci127j5yfNg9cD+HP1qbsaSOp0mXUZ7PzdThSOYuwAUEDbng4Jz0xVJ3BF0MR0NOwjmQpmtra5JwZoUkI9MqDj9ayATyf8Aa/SgBBHkkZ6e1AAYsAnP6UAMC7uM4zxQAw7gGAY9ODQAhyUBzz64oACWzyQRjpigAClxyeR6UXAd8wXrz9KAEQYGc0AARwf9YfyoAAuMA4wfagCIyNvBHGeooAeDt6BfyoAG3cfNn5fzp3AjVmYYz+lFwEZihGTnAouAiysoIUDmhu4CF2IAJ6VV7K6ATJpczYAWz0GKOdgGTRztgJuJYjtQ5MAPIwaVwFouA3eQm89aG3cAJOBz6UX6ANkcqwPUelK4CLMWcLtwKAEM55+UZ7VolcBBcHbnaM1AB9oJGCowetFwFM7bd23knFNSAQXLcfKM5xQ2AouSWI2ihyuA4zkKHx973o5gFjk354xijmAkDkdMUcwDRK2OOzYpXuA4yMCOAefSi4DWlY7mIHB6U1KwD0uXZQQAB6UrgNe6dGA68ZouBCL2VegAobuAv26UdABRcAF7MATxyaLgO+3S4q3sAq3kkhwQKi4D47uRweAMfjVNtANa9lRiuAaa1QDzeSAqQB81JNgP+1S9cilzAH2lyMYFHMwE+0Seoo5mAfaZMdqOYBftMmckCjmYCi7kHAFHMAv2px0A5FPW4AtxIfTnine6uO48SvzyOlTcQ0TyFtpINU/Id7kguZhwGH5UriD7RJ7flTuO7Hi5lK7i3SlcQn2qYcgj6Yp3AebiQ9Dip5mAvnyYySDzTuwHJcOTgACi7DYcszn0oux3Y7zpPUflRcLsfvbHWlzD5mKJHHRjRzCuOWZ/XP1qk7iHiaQ55HHtQA5ZHI69KQC+Y/XigBombOMCnqA4yvu28cClqA37S/TApjuwFy44wKYXaHG8lxt4xQF3uIbyULjik9gu73FE7kbuKVwuH2yRR8o/WjW1wvcX+0JhjgdKG7CD+0Jc42infWwDv7Qk4+Qce9K7AcNQckDyxz707NASi7b+4KnmYH//2Q==;strokeColor=none;points=[[0.5,0.34,0],[0.5,0.65,0],[0.53,0.65,0],[0.53,0.34,0],[0.56,0.34,0],[0.56,0.65,0],[0.59,0.34,0],[0.59,0.65,0],[0.63,0.65,0],[0.63,0.34,0],[0.66,0.34,0],[0.66,0.65,0],[0.7,0.34,0],[0.7,0.65,0],[0.73,0.34,0],[0.73,0.65,0],[0.76,0.34,0],[0.76,0.65,0],[0.79,0.34,0],[0.79,0.65,0],[0.83,0.34,0],[0.83,0.65,0],[0.86,0.34,0],[0.86,0.65,0],[0.94,0.31,0],[0.94,0.67,0]];labelBackgroundColor=none;rounded=0;html=1;whiteSpace=wrap;textOpacity=0;align=center;noLabel=0;" vertex="1" parent="1">
          <mxGeometry x="1226" y="364" width="1054.05" height="100" as="geometry" />
        </mxCell>
        <mxCell id="5FEoaXunzZBtXonlNajd-40" value="&lt;div style=&quot;font-size: 1px&quot;&gt;&lt;font style=&quot;font-size:12.7px;font-family:Calibri;color:#000000;direction:ltr;letter-spacing:0px;line-height:120%;opacity:1&quot;&gt;USW-24-PoE&lt;br/&gt;&lt;/font&gt;&lt;/div&gt;" style="text;vsdxID=5;fillColor=none;gradientColor=none;aspect=fixed;strokeColor=none;points=[[0.5,0.34,0],[0.5,0.65,0],[0.53,0.65,0],[0.53,0.34,0],[0.56,0.34,0],[0.56,0.65,0],[0.59,0.34,0],[0.59,0.65,0],[0.63,0.65,0],[0.63,0.34,0],[0.66,0.34,0],[0.66,0.65,0],[0.7,0.34,0],[0.7,0.65,0],[0.73,0.34,0],[0.73,0.65,0],[0.76,0.34,0],[0.76,0.65,0],[0.79,0.34,0],[0.79,0.65,0],[0.83,0.34,0],[0.83,0.65,0],[0.86,0.34,0],[0.86,0.65,0],[0.94,0.31,0],[0.94,0.67,0]];labelBackgroundColor=none;rounded=0;html=1;whiteSpace=wrap;verticalAlign=top;align=center;;html=1;" vertex="1" parent="5FEoaXunzZBtXonlNajd-39">
          <mxGeometry y="100" width="1054.05" as="geometry" />
        </mxCell>
        <mxCell id="5FEoaXunzZBtXonlNajd-58" style="edgeStyle=orthogonalEdgeStyle;rounded=0;orthogonalLoop=1;jettySize=auto;html=1;exitX=0.5;exitY=0.34;exitDx=0;exitDy=0;exitPerimeter=0;" edge="1" parent="1" source="5FEoaXunzZBtXonlNajd-39">
          <mxGeometry relative="1" as="geometry">
            <mxPoint x="1753" y="320" as="targetPoint" />
          </mxGeometry>
        </mxCell>
        <mxCell id="5FEoaXunzZBtXonlNajd-59" style="edgeStyle=orthogonalEdgeStyle;rounded=0;orthogonalLoop=1;jettySize=auto;html=1;exitX=0.53;exitY=0.34;exitDx=0;exitDy=0;exitPerimeter=0;" edge="1" parent="1" source="5FEoaXunzZBtXonlNajd-39">
          <mxGeometry relative="1" as="geometry">
            <mxPoint x="1785" y="320" as="targetPoint" />
          </mxGeometry>
        </mxCell>
        <mxCell id="5FEoaXunzZBtXonlNajd-60" style="edgeStyle=orthogonalEdgeStyle;rounded=0;orthogonalLoop=1;jettySize=auto;html=1;exitX=0.56;exitY=0.34;exitDx=0;exitDy=0;exitPerimeter=0;" edge="1" parent="1" source="5FEoaXunzZBtXonlNajd-39">
          <mxGeometry relative="1" as="geometry">
            <mxPoint x="1816" y="320" as="targetPoint" />
          </mxGeometry>
        </mxCell>
        <mxCell id="5FEoaXunzZBtXonlNajd-61" style="edgeStyle=orthogonalEdgeStyle;rounded=0;orthogonalLoop=1;jettySize=auto;html=1;exitX=0.59;exitY=0.34;exitDx=0;exitDy=0;exitPerimeter=0;" edge="1" parent="1" source="5FEoaXunzZBtXonlNajd-39">
          <mxGeometry relative="1" as="geometry">
            <mxPoint x="1848" y="320" as="targetPoint" />
          </mxGeometry>
        </mxCell>
        <mxCell id="5FEoaXunzZBtXonlNajd-62" style="edgeStyle=orthogonalEdgeStyle;rounded=0;orthogonalLoop=1;jettySize=auto;html=1;exitX=0.63;exitY=0.34;exitDx=0;exitDy=0;exitPerimeter=0;" edge="1" parent="1" source="5FEoaXunzZBtXonlNajd-39">
          <mxGeometry relative="1" as="geometry">
            <mxPoint x="1890" y="320" as="targetPoint" />
          </mxGeometry>
        </mxCell>
        <mxCell id="5FEoaXunzZBtXonlNajd-63" style="edgeStyle=orthogonalEdgeStyle;rounded=0;orthogonalLoop=1;jettySize=auto;html=1;exitX=0.66;exitY=0.34;exitDx=0;exitDy=0;exitPerimeter=0;" edge="1" parent="1" source="5FEoaXunzZBtXonlNajd-39">
          <mxGeometry relative="1" as="geometry">
            <mxPoint x="1922" y="320" as="targetPoint" />
          </mxGeometry>
        </mxCell>
        <mxCell id="5FEoaXunzZBtXonlNajd-64" style="edgeStyle=orthogonalEdgeStyle;rounded=0;orthogonalLoop=1;jettySize=auto;html=1;exitX=0.7;exitY=0.34;exitDx=0;exitDy=0;exitPerimeter=0;" edge="1" parent="1" source="5FEoaXunzZBtXonlNajd-39">
          <mxGeometry relative="1" as="geometry">
            <mxPoint x="1964" y="320" as="targetPoint" />
          </mxGeometry>
        </mxCell>
        <mxCell id="5FEoaXunzZBtXonlNajd-65" style="edgeStyle=orthogonalEdgeStyle;rounded=0;orthogonalLoop=1;jettySize=auto;html=1;exitX=0.73;exitY=0.34;exitDx=0;exitDy=0;exitPerimeter=0;" edge="1" parent="1" source="5FEoaXunzZBtXonlNajd-39">
          <mxGeometry relative="1" as="geometry">
            <mxPoint x="1995" y="320" as="targetPoint" />
          </mxGeometry>
        </mxCell>
        <mxCell id="5FEoaXunzZBtXonlNajd-66" style="edgeStyle=orthogonalEdgeStyle;rounded=0;orthogonalLoop=1;jettySize=auto;html=1;exitX=0.76;exitY=0.34;exitDx=0;exitDy=0;exitPerimeter=0;" edge="1" parent="1" source="5FEoaXunzZBtXonlNajd-39">
          <mxGeometry relative="1" as="geometry">
            <mxPoint x="2027" y="320" as="targetPoint" />
          </mxGeometry>
        </mxCell>
        <mxCell id="5FEoaXunzZBtXonlNajd-67" style="edgeStyle=orthogonalEdgeStyle;rounded=0;orthogonalLoop=1;jettySize=auto;html=1;exitX=0.79;exitY=0.34;exitDx=0;exitDy=0;exitPerimeter=0;" edge="1" parent="1" source="5FEoaXunzZBtXonlNajd-39">
          <mxGeometry relative="1" as="geometry">
            <mxPoint x="2059" y="320" as="targetPoint" />
          </mxGeometry>
        </mxCell>
        <mxCell id="5FEoaXunzZBtXonlNajd-68" style="edgeStyle=orthogonalEdgeStyle;rounded=0;orthogonalLoop=1;jettySize=auto;html=1;exitX=0.83;exitY=0.34;exitDx=0;exitDy=0;exitPerimeter=0;" edge="1" parent="1" source="5FEoaXunzZBtXonlNajd-39">
          <mxGeometry relative="1" as="geometry">
            <mxPoint x="2101" y="320" as="targetPoint" />
          </mxGeometry>
        </mxCell>
        <mxCell id="5FEoaXunzZBtXonlNajd-69" style="edgeStyle=orthogonalEdgeStyle;rounded=0;orthogonalLoop=1;jettySize=auto;html=1;exitX=0.86;exitY=0.34;exitDx=0;exitDy=0;exitPerimeter=0;" edge="1" parent="1" source="5FEoaXunzZBtXonlNajd-39">
          <mxGeometry relative="1" as="geometry">
            <mxPoint x="2132" y="320" as="targetPoint" />
          </mxGeometry>
        </mxCell>
        <mxCell id="5FEoaXunzZBtXonlNajd-76" value="" style="rounded=0;whiteSpace=wrap;html=1;rotation=-50;" vertex="1" parent="1">
          <mxGeometry x="1730" y="270" width="120" height="20" as="geometry" />
        </mxCell>
        <mxCell id="5FEoaXunzZBtXonlNajd-77" value="" style="rounded=0;whiteSpace=wrap;html=1;rotation=-50;" vertex="1" parent="1">
          <mxGeometry x="1762" y="270" width="120" height="20" as="geometry" />
        </mxCell>
        <mxCell id="5FEoaXunzZBtXonlNajd-80" value="" style="rounded=0;whiteSpace=wrap;html=1;rotation=-50;" vertex="1" parent="1">
          <mxGeometry x="1793" y="270" width="120" height="20" as="geometry" />
        </mxCell>
        <mxCell id="5FEoaXunzZBtXonlNajd-81" value="" style="rounded=0;whiteSpace=wrap;html=1;rotation=-50;" vertex="1" parent="1">
          <mxGeometry x="1825" y="270" width="120" height="20" as="geometry" />
        </mxCell>
        <mxCell id="5FEoaXunzZBtXonlNajd-82" value="" style="rounded=0;whiteSpace=wrap;html=1;rotation=-50;" vertex="1" parent="1">
          <mxGeometry x="1867" y="270" width="120" height="20" as="geometry" />
        </mxCell>
        <mxCell id="5FEoaXunzZBtXonlNajd-83" value="" style="rounded=0;whiteSpace=wrap;html=1;rotation=-50;" vertex="1" parent="1">
          <mxGeometry x="1899" y="270" width="120" height="20" as="geometry" />
        </mxCell>
        <mxCell id="5FEoaXunzZBtXonlNajd-84" value="" style="rounded=0;whiteSpace=wrap;html=1;rotation=-50;" vertex="1" parent="1">
          <mxGeometry x="1941" y="270" width="120" height="20" as="geometry" />
        </mxCell>
        <mxCell id="5FEoaXunzZBtXonlNajd-85" value="" style="rounded=0;whiteSpace=wrap;html=1;rotation=-50;" vertex="1" parent="1">
          <mxGeometry x="1972" y="270" width="120" height="20" as="geometry" />
        </mxCell>
        <mxCell id="5FEoaXunzZBtXonlNajd-86" value="" style="rounded=0;whiteSpace=wrap;html=1;rotation=-50;" vertex="1" parent="1">
          <mxGeometry x="2004" y="270" width="120" height="20" as="geometry" />
        </mxCell>
        <mxCell id="5FEoaXunzZBtXonlNajd-87" value="" style="rounded=0;whiteSpace=wrap;html=1;rotation=-50;" vertex="1" parent="1">
          <mxGeometry x="2036" y="270" width="120" height="20" as="geometry" />
        </mxCell>
        <mxCell id="5FEoaXunzZBtXonlNajd-88" value="" style="rounded=0;whiteSpace=wrap;html=1;rotation=-50;" vertex="1" parent="1">
          <mxGeometry x="2078" y="270" width="120" height="20" as="geometry" />
        </mxCell>
        <mxCell id="5FEoaXunzZBtXonlNajd-89" value="" style="rounded=0;whiteSpace=wrap;html=1;rotation=-50;" vertex="1" parent="1">
          <mxGeometry x="2109" y="270" width="120" height="20" as="geometry" />
        </mxCell>
      </root>
    </mxGraphModel>
  </diagram>
</mxfile>
